# xmcd CD database file
#
# Track frame offsets:
#	150
#	40341
#	68580
#	102336
#	133865
#	163091
#	188825
#	224990
#
# Disc length: 3651 seconds
#
# Revision: 0
# Processed by: cddbd v1.5.2PL0 Copyright (c) Steve Scherf et al.
# Submitted via: CDex 1.70beta2
#
DISCID=7b0e4108
DTITLE=Kitaro - Sacred Journey Of Ku-Kai Vol. 3
DYEAR=2007
DGENRE=New Age
TTITLE0=Sky And Ocean
TTITLE1=Crystal Winds
TTITLE2=After The Rain
TTITLE3=Sacred Fountain
TTITLE4=Winds Blow Over The Hill
TTITLE5=Into The Forest
TTITLE6=Voice In Blue
TTITLE7=Circle Dance
EXTD=YEAR: 2007
EXTT0=
EXTT1=
EXTT2=
EXTT3=
EXTT4=
EXTT5=
EXTT6=
EXTT7=
PLAYORDER=
